<svg width="48" height="17" xmlns="http://www.w3.org/2000/svg"><path d="M1.86 3.146h-.9v5.148c0 .876.144 1.404.528 1.896.516.684 1.404 1.104 2.328 1.104.912 0 1.788-.42 2.316-1.104.384-.492.528-1.032.528-1.896V3.146h-.9v4.908c0 .828-.06 1.188-.264 1.536-.312.504-.996.864-1.68.864-.696 0-1.38-.36-1.692-.864-.204-.348-.264-.708-.264-1.536zm9.264 3.816c-.312-.612-.756-.9-1.368-.9-.828 0-1.452.6-1.452 1.392 0 .66.288.948 1.44 1.452.624.264.804.444.804.828 0 .444-.348.78-.816.78-.468 0-.708-.204-.996-.804l-.756.312c.324.84.912 1.272 1.74 1.272.972 0 1.704-.696 1.704-1.62 0-.468-.192-.828-.552-1.092-.228-.168-.372-.24-.948-.48-.636-.264-.804-.42-.804-.708 0-.3.276-.552.6-.552.3 0 .516.156.696.492zm5.916 1.872V8.69c0-1.584-.936-2.628-2.376-2.628-1.428 0-2.412 1.068-2.412 2.628 0 1.536 1.008 2.604 2.448 2.604 1.008 0 1.74-.444 2.292-1.416l-.72-.408c-.48.768-.876 1.044-1.536 1.044-.9 0-1.536-.66-1.584-1.68zm-3.828-.72c.12-.744.744-1.284 1.464-1.284.732 0 1.308.504 1.464 1.284zM25.068 6.53c-.516-.336-.96-.468-1.548-.468-1.5 0-2.652 1.14-2.652 2.628 0 1.464 1.152 2.604 2.64 2.604.576 0 .984-.132 1.596-.516V9.65c-.564.636-.996.864-1.62.864-.984 0-1.74-.792-1.74-1.836s.756-1.836 1.764-1.836c.6 0 1.008.216 1.56.816zm3.516-.468c-1.452 0-2.64 1.152-2.64 2.568 0 1.5 1.14 2.664 2.616 2.664 1.5 0 2.652-1.14 2.652-2.616 0-1.476-1.152-2.616-2.628-2.616zm-.012.78c1.02 0 1.764.768 1.764 1.836 0 1.08-.744 1.836-1.776 1.836-1.02 0-1.74-.78-1.74-1.86 0-1.032.744-1.812 1.752-1.812zm7.596-4.44v4.476c-.492-.564-1.032-.816-1.74-.816-1.368 0-2.376 1.092-2.376 2.592 0 1.524 1.02 2.64 2.4 2.64.708 0 1.296-.288 1.704-.828v.684h.864V2.402zm-1.596 4.44c.408 0 .828.168 1.14.456.348.312.504.744.504 1.356 0 1.116-.66 1.86-1.656 1.86-.948 0-1.632-.792-1.632-1.884 0-1.008.708-1.788 1.644-1.788zm8.412 1.992V8.69c0-1.584-.936-2.628-2.376-2.628-1.428 0-2.412 1.068-2.412 2.628 0 1.536 1.008 2.604 2.448 2.604 1.008 0 1.74-.444 2.292-1.416l-.72-.408c-.48.768-.876 1.044-1.536 1.044-.9 0-1.536-.66-1.584-1.68zm-3.828-.72c.12-.744.744-1.284 1.464-1.284.732 0 1.308.504 1.464 1.284zm5.592 1.968a.594.594 0 1 0 .012 1.188.594.594 0 0 0-.012-1.188zm0-4.02a.587.587 0 0 0-.588.576c0 .336.264.6.588.6a.589.589 0 0 0 0-1.176z"/></svg>