<svg width="82" height="17" xmlns="http://www.w3.org/2000/svg"><path d="M4.79 11.39h2.7c.888 0 1.524-.192 1.992-.612.456-.408.708-1.008.708-1.644 0-.588-.216-1.152-.576-1.512-.252-.264-.504-.384-1.044-.504.312-.192.444-.3.576-.48.18-.288.3-.708.3-1.14 0-.66-.276-1.284-.72-1.632-.408-.324-1.032-.48-1.956-.48H4.79zm1.56-4.668V4.646h.468c.78 0 1.188.348 1.188 1.032 0 .696-.408 1.044-1.212 1.044zm0 3.408V7.91h.588c.648 0 .9.048 1.176.228.3.18.468.504.468.888 0 .744-.504 1.104-1.56 1.104zm10.02-.432l.684 1.692h1.668l-3.36-8.172h-1.176l-3.468 8.172h1.656l.72-1.692zm-.492-1.26h-2.28l1.164-2.88zm3.792 2.952h2.7c.888 0 1.524-.192 1.992-.612.456-.408.708-1.008.708-1.644 0-.588-.216-1.152-.576-1.512-.252-.264-.504-.384-1.044-.504.312-.192.444-.3.576-.48.18-.288.3-.708.3-1.14 0-.66-.276-1.284-.72-1.632-.408-.324-1.032-.48-1.956-.48h-1.98zm1.56-4.668V4.646h.468c.78 0 1.188.348 1.188 1.032 0 .696-.408 1.044-1.212 1.044zm0 3.408V7.91h.588c.648 0 .9.048 1.176.228.3.18.468.504.468.888 0 .744-.504 1.104-1.56 1.104zm7.056-2.412v3.672h1.56V7.718l2.808-4.332h-1.86L29.102 6.17l-1.728-2.784h-1.848zm5.22 3.672h2.7c.888 0 1.524-.192 1.992-.612.456-.408.708-1.008.708-1.644 0-.588-.216-1.152-.576-1.512-.252-.264-.504-.384-1.044-.504.312-.192.444-.3.576-.48.18-.288.3-.708.3-1.14 0-.66-.276-1.284-.72-1.632-.408-.324-1.032-.48-1.956-.48h-1.98zm1.56-4.668V4.646h.468c.78 0 1.188.348 1.188 1.032 0 .696-.408 1.044-1.212 1.044zm0 3.408V7.91h.588c.648 0 .9.048 1.176.228.3.18.468.504.468.888 0 .744-.504 1.104-1.56 1.104zm6.84-6.744h-1.56v4.896c0 .936.18 1.596.588 2.136.552.72 1.536 1.152 2.628 1.152s2.076-.432 2.628-1.152c.408-.54.588-1.2.588-2.136V3.386h-1.56V7.97c0 .816-.048 1.08-.252 1.428-.264.456-.804.744-1.404.744-.6 0-1.14-.288-1.404-.744-.204-.348-.252-.612-.252-1.428zm6.276 8.004h1.572l.804-4.932 2.124 5.04h.432l2.196-5.04.72 4.932h1.572L56.27 3.242h-1.08l-2.268 5.232-2.184-5.232H49.67zM60.59 8.426h1.008c.948 0 1.596-.228 2.052-.708.408-.444.648-1.092.648-1.788 0-.768-.3-1.464-.816-1.932-.504-.444-1.068-.612-2.112-.612h-2.34v8.004h1.56zm0-1.356V4.742h.54c.576 0 .912.072 1.152.252.252.192.408.54.408.924 0 .768-.492 1.152-1.464 1.152zm7.056 2.964l1.392-1.476c1.02-1.08 1.452-1.908 1.452-2.796 0-1.488-1.2-2.58-2.82-2.58-1.62 0-2.7 1.044-2.808 2.7h1.668c.036-.828.468-1.32 1.188-1.32.672 0 1.212.528 1.212 1.212 0 .672-.384 1.284-1.836 2.94L64.73 11.39h5.82v-1.356zm7.092-6.852c-.876 0-1.692.444-2.28 1.224-.54.732-.828 1.752-.828 2.916 0 1.308.264 2.256.828 3.048.564.78 1.392 1.224 2.28 1.224.876 0 1.704-.456 2.268-1.224.552-.78.828-1.752.828-2.988s-.276-2.208-.828-2.976c-.576-.78-1.392-1.224-2.268-1.224zm0 1.38c.9 0 1.536 1.176 1.536 2.82 0 1.656-.636 2.832-1.536 2.832-.912 0-1.548-1.176-1.548-2.868 0-1.608.648-2.784 1.548-2.784z" fill="#fff"/></svg>