<svg width="62" height="14" xmlns="http://www.w3.org/2000/svg"><path d="M5.135 3.45a2.92 2.92 0 0 0-1.96-.74c-1.2 0-2.08.82-2.08 1.94 0 .88.44 1.36 1.64 1.8.54.2.8.31.93.4.24.17.36.4.36.67 0 .55-.43.94-1.03.94-.6 0-1.1-.32-1.4-.89l-.84.81c.6.87 1.32 1.27 2.29 1.27 1.38 0 2.32-.89 2.32-2.2 0-.59-.2-1.07-.59-1.4-.3-.26-.6-.4-1.33-.67-.78-.29-1.01-.48-1.01-.84 0-.41.41-.74.94-.74.42 0 .73.15 1.08.54zm2.68 1.95V2.82h-1.3v6.67h1.3V6.53h2.82v2.96h1.3V2.82h-1.3V5.4zm8.89-2.73c-1.98 0-3.58 1.54-3.58 3.44 0 2 1.53 3.53 3.53 3.53 2.03 0 3.6-1.51 3.6-3.48 0-1.96-1.56-3.49-3.55-3.49zm-.02 1.19c1.24 0 2.23 1.02 2.23 2.29s-1 2.3-2.22 2.3c-1.24 0-2.23-1.03-2.23-2.32 0-1.24 1.01-2.27 2.22-2.27zm6.07 3.16h.84c.79 0 1.33-.19 1.71-.59.34-.37.54-.91.54-1.49 0-.64-.25-1.22-.68-1.61-.42-.37-.89-.51-1.76-.51h-1.95v6.67h1.3zm0-1.13V3.95h.45c.48 0 .76.06.96.21.21.16.34.45.34.77 0 .64-.41.96-1.22.96zm6.55 3.6h1.3V4.98l4.06 4.64h.9v-6.8h-1.3v4.49l-4.06-4.64h-.9zm11.03-6.82c-1.98 0-3.58 1.54-3.58 3.44 0 2 1.53 3.53 3.53 3.53 2.03 0 3.6-1.51 3.6-3.48 0-1.96-1.56-3.49-3.55-3.49zm-.02 1.19c1.24 0 2.23 1.02 2.23 2.29s-1 2.3-2.22 2.3c-1.24 0-2.23-1.03-2.23-2.32 0-1.24 1.01-2.27 2.22-2.27zm5.38-1.04h-1.37l2.36 6.8h.91l1.56-4.36 1.48 4.36h.91l2.51-6.8h-1.37l-1.6 4.54-1.55-4.6h-.71l-1.63 4.6zm11.21 6.09l4.33-2.21V5.61l-4.33-2.21v1.28l2.96 1.47-2.96 1.47z"/></svg>