<svg width="116" height="12" xmlns="http://www.w3.org/2000/svg"><path d="M2.304 8.282L.696 11.558h.96L5.34 3.77h-.972L2.76 7.334.996 3.77H.012zM8.4 3.662c-1.452 0-2.64 1.152-2.64 2.568 0 1.5 1.14 2.664 2.616 2.664 1.5 0 2.652-1.14 2.652-2.616 0-1.476-1.152-2.616-2.628-2.616zm-.012.78c1.02 0 1.764.768 1.764 1.836 0 1.08-.744 1.836-1.776 1.836-1.02 0-1.74-.78-1.74-1.86 0-1.032.744-1.812 1.752-1.812zm4.668-.672h-.852v3c0 .732.12 1.128.456 1.5.36.408.9.624 1.524.624.612 0 1.152-.216 1.512-.624.336-.372.456-.768.456-1.5v-3H15.3v2.904c0 .468-.048.72-.156.936-.168.312-.54.504-.96.504-.432 0-.804-.192-.972-.504-.108-.216-.156-.468-.156-.936zm4.632 0v4.98h.852V6.122c0-.6.06-.96.192-1.2.144-.276.468-.456.792-.456.18 0 .288.036.504.168l.396-.768c-.3-.168-.48-.216-.756-.216-.468 0-.684.132-1.128.66v-.54zm7.344.792h1.26V3.77h-1.26V1.85c0-.9.144-1.14.684-1.14.192 0 .324.024.576.12v-.864c-.276-.084-.408-.108-.624-.108-.516 0-.936.18-1.2.528-.204.264-.288.66-.288 1.26V3.77h-.468v.792h.468V8.75h.852zm2.82-.792H27v4.98h.852zm-.42-2.496a.612.612 0 0 0-.612.6c0 .348.276.624.612.624a.615.615 0 0 0 .612-.612.615.615 0 0 0-.612-.612zM29.4 3.77v4.98h.852V6.122c0-.6.06-.96.192-1.2.144-.276.468-.456.792-.456.18 0 .288.036.504.168l.396-.768c-.3-.168-.48-.216-.756-.216-.468 0-.684.132-1.128.66v-.54zm6.156.792c-.312-.612-.756-.9-1.368-.9-.828 0-1.452.6-1.452 1.392 0 .66.288.948 1.44 1.452.624.264.804.444.804.828 0 .444-.348.78-.816.78-.468 0-.708-.204-.996-.804l-.756.312c.324.84.912 1.272 1.74 1.272.972 0 1.704-.696 1.704-1.62 0-.468-.192-.828-.552-1.092-.228-.168-.372-.24-.948-.48-.636-.264-.804-.42-.804-.708 0-.3.276-.552.6-.552.3 0 .516.156.696.492zm2.4 0h.888V3.77h-.888v-1.8h-.852v1.8h-.516v.792h.516V8.75h.852zm5.544 6.996V8.054c.492.588 1.032.84 1.74.84 1.368 0 2.376-1.104 2.376-2.604 0-1.524-1.008-2.64-2.4-2.64-.696 0-1.236.252-1.716.828V3.77h-.852v7.788zm1.608-7.128c.948 0 1.632.792 1.632 1.884 0 1.02-.708 1.8-1.632 1.8-.972 0-1.668-.756-1.668-1.824 0-1.092.696-1.86 1.668-1.86zm4.548-.66h-.852v3c0 .732.12 1.128.456 1.5.36.408.9.624 1.524.624.612 0 1.152-.216 1.512-.624.336-.372.456-.768.456-1.5v-3H51.9v2.904c0 .468-.048.72-.156.936-.168.312-.54.504-.96.504-.432 0-.804-.192-.972-.504-.108-.216-.156-.468-.156-.936zm4.632 0v4.98h.852V6.122c0-.6.06-.96.192-1.2.144-.276.468-.456.792-.456.18 0 .288.036.504.168l.396-.768c-.3-.168-.48-.216-.756-.216-.468 0-.684.132-1.128.66v-.54zm7.272.36c-.516-.336-.96-.468-1.548-.468-1.5 0-2.652 1.14-2.652 2.628 0 1.464 1.152 2.604 2.64 2.604.576 0 .984-.132 1.596-.516V7.25c-.564.636-.996.864-1.62.864-.984 0-1.74-.792-1.74-1.836S58.992 4.442 60 4.442c.6 0 1.008.216 1.56.816zM62.784.002V8.75h.852V6.266c0-.588.06-.948.204-1.236.18-.372.564-.588 1.056-.588.732 0 1.032.372 1.032 1.284V8.75h.852V5.666c0-.648-.084-1.008-.288-1.32-.276-.42-.828-.684-1.428-.684s-1.008.192-1.428.696V.002zm9.312 3.768v.708c-.492-.576-1.02-.828-1.74-.828-1.368 0-2.376 1.092-2.376 2.592 0 1.536 1.008 2.652 2.4 2.652.708 0 1.236-.264 1.716-.84v.696h.852V3.77zm-1.596.66c.972 0 1.656.744 1.656 1.824 0 1.092-.684 1.86-1.668 1.86-.948 0-1.632-.792-1.632-1.884 0-1.02.708-1.8 1.644-1.8zm6.708.132c-.312-.612-.756-.9-1.368-.9-.828 0-1.452.6-1.452 1.392 0 .66.288.948 1.44 1.452.624.264.804.444.804.828 0 .444-.348.78-.816.78-.468 0-.708-.204-.996-.804l-.756.312c.324.84.912 1.272 1.74 1.272.972 0 1.704-.696 1.704-1.62 0-.468-.192-.828-.552-1.092-.228-.168-.372-.24-.948-.48-.636-.264-.804-.42-.804-.708 0-.3.276-.552.6-.552.3 0 .516.156.696.492zm5.916 1.872V6.29c0-1.584-.936-2.628-2.376-2.628-1.428 0-2.412 1.068-2.412 2.628 0 1.536 1.008 2.604 2.448 2.604 1.008 0 1.74-.444 2.292-1.416l-.72-.408c-.48.768-.876 1.044-1.536 1.044-.9 0-1.536-.66-1.584-1.68zm-3.828-.72c.12-.744.744-1.284 1.464-1.284.732 0 1.308.504 1.464 1.284z"/></svg>