<svg width="47" height="13" xmlns="http://www.w3.org/2000/svg"><path d="M3.74 8.271l1.508-1.599c1.105-1.17 1.573-2.067 1.573-3.029 0-1.612-1.3-2.795-3.055-2.795C2.011.848.841 1.979.724 3.773h1.807c.039-.897.507-1.43 1.287-1.43.728 0 1.313.572 1.313 1.313 0 .728-.416 1.391-1.989 3.185L.581 9.74h6.305V8.271zM11.423.848c-.949 0-1.833.481-2.47 1.326-.585.793-.897 1.898-.897 3.159 0 1.417.286 2.444.897 3.302.611.845 1.508 1.326 2.47 1.326.949 0 1.846-.494 2.457-1.326.598-.845.897-1.898.897-3.237 0-1.339-.299-2.392-.897-3.224-.624-.845-1.508-1.326-2.457-1.326zm0 1.495c.975 0 1.664 1.274 1.664 3.055 0 1.794-.689 3.068-1.664 3.068-.988 0-1.677-1.274-1.677-3.107 0-1.742.702-3.016 1.677-3.016zM17.702.965c-1.261 0-2.21.871-2.21 2.028 0 1.209.91 2.08 2.184 2.08 1.287 0 2.223-.871 2.223-2.067 0-1.17-.936-2.041-2.197-2.041zm-.013.936a1.13 1.13 0 0 1 1.131 1.118 1.13 1.13 0 0 1-1.118 1.131 1.135 1.135 0 0 1-1.131-1.144c0-.598.507-1.105 1.118-1.105zm4.68-1.118l-5.161 8.918.689.403 5.161-8.931zm.234 4.992c-1.261 0-2.21.871-2.21 2.015 0 1.209.91 2.08 2.184 2.08s2.21-.871 2.21-2.054c0-1.17-.936-2.041-2.184-2.041zm-.013.923c.624 0 1.118.507 1.118 1.118a1.13 1.13 0 0 1-1.118 1.131c-.624 0-1.118-.507-1.118-1.144 0-.598.507-1.105 1.118-1.105zm9.529-2.769c-1.885 0-3.237 1.235-3.237 2.951 0 1.807 1.3 3.042 3.185 3.042 1.924 0 3.25-1.222 3.25-3.003 0-1.768-1.313-2.99-3.198-2.99zm-.026 1.417c.884 0 1.599.702 1.599 1.586 0 .871-.715 1.573-1.586 1.573a1.582 1.582 0 0 1-1.599-1.599c0-.845.728-1.56 1.586-1.56zm6.058.13h1.443V4.111h-1.443V2.538c0-.442.026-.676.117-.871a.64.64 0 0 1 .611-.403c.208 0 .377.052.715.208V.042c-.338-.156-.52-.195-.832-.195-.624 0-1.235.273-1.664.741-.377.429-.52.884-.52 1.716v1.807h-.611v1.365h.611V9.74h1.573zm3.809 0h1.443V4.111H41.96V2.538c0-.442.026-.676.117-.871a.64.64 0 0 1 .611-.403c.208 0 .377.052.715.208V.042c-.338-.156-.52-.195-.832-.195-.624 0-1.235.273-1.664.741-.377.429-.52.884-.52 1.716v1.807h-.611v1.365h.611V9.74h1.573z"/></svg>