<svg width="48" height="12" xmlns="http://www.w3.org/2000/svg"><path d="M5.76 7.634l1.392-1.476c1.02-1.08 1.452-1.908 1.452-2.796 0-1.488-1.2-2.58-2.82-2.58-1.62 0-2.7 1.044-2.808 2.7h1.668c.036-.828.468-1.32 1.188-1.32.672 0 1.212.528 1.212 1.212 0 .672-.384 1.284-1.836 2.94L2.844 8.99h5.82V7.634zM12.852.782c-.876 0-1.692.444-2.28 1.224-.54.732-.828 1.752-.828 2.916 0 1.308.264 2.256.828 3.048.564.78 1.392 1.224 2.28 1.224.876 0 1.704-.456 2.268-1.224.552-.78.828-1.752.828-2.988s-.276-2.208-.828-2.976c-.576-.78-1.392-1.224-2.268-1.224zm0 1.38c.9 0 1.536 1.176 1.536 2.82 0 1.656-.636 2.832-1.536 2.832-.912 0-1.548-1.176-1.548-2.868 0-1.608.648-2.784 1.548-2.784zM18.648.89c-1.164 0-2.04.804-2.04 1.872 0 1.116.84 1.92 2.016 1.92 1.188 0 2.052-.804 2.052-1.908 0-1.08-.864-1.884-2.028-1.884zm-.012.864c.576 0 1.044.468 1.044 1.032 0 .576-.468 1.044-1.032 1.044a1.047 1.047 0 0 1-1.044-1.056c0-.552.468-1.02 1.032-1.02zm4.32-1.032l-4.764 8.232.636.372 4.764-8.244zm.216 4.608c-1.164 0-2.04.804-2.04 1.86 0 1.116.84 1.92 2.016 1.92 1.176 0 2.04-.804 2.04-1.896 0-1.08-.864-1.884-2.016-1.884zm-.012.852c.576 0 1.032.468 1.032 1.032 0 .576-.468 1.044-1.032 1.044a1.037 1.037 0 0 1-1.032-1.056c0-.552.468-1.02 1.032-1.02zm8.796-2.556c-1.74 0-2.988 1.14-2.988 2.724 0 1.668 1.2 2.808 2.94 2.808 1.776 0 3-1.128 3-2.772 0-1.632-1.212-2.76-2.952-2.76zm-.024 1.308c.816 0 1.476.648 1.476 1.464a1.46 1.46 0 0 1-1.464 1.452 1.46 1.46 0 0 1-1.476-1.476c0-.78.672-1.44 1.464-1.44zm5.592.12h1.332v-1.26h-1.332V2.342c0-.408.024-.624.108-.804a.59.59 0 0 1 .564-.372c.192 0 .348.048.66.192V.038c-.312-.144-.48-.18-.768-.18-.576 0-1.14.252-1.536.684-.348.396-.48.816-.48 1.584v1.668h-.564v1.26h.564V8.99h1.452zm3.516 0h1.332v-1.26H41.04V2.342c0-.408.024-.624.108-.804a.59.59 0 0 1 .564-.372c.192 0 .348.048.66.192V.038c-.312-.144-.48-.18-.768-.18-.576 0-1.14.252-1.536.684-.348.396-.48.816-.48 1.584v1.668h-.564v1.26h.564V8.99h1.452z"/></svg>